<svg width="465" height="465" viewBox="0 0 465 465" fill="none" xmlns="http://www.w3.org/2000/svg">
<g clip-path="url(#clip0_106_2)">
<rect width="465" height="465" fill="white"/>
<rect x="4" y="4" width="457" height="457" stroke="black" stroke-width="8"/>
<path d="M394.368 58.5703C394.368 72.5 408.84 119.387 339.957 227.104C323.171 296.019 367.163 308.172 372.951 399.673C316.804 414.731 325.486 412.414 279.758 435C308.7 342.34 311.31 325.687 299.439 278.057C266.445 218.407 176.724 257.788 109 163.97C206.824 176.131 234.03 137.909 273.391 159.916C273.391 132.698 322.878 135.445 339.957 116.5C366.584 86.9646 381.5 67.5 394.368 58.5703Z" fill="#F23F3F"/>
<path d="M463.5 465C427.5 465 278.725 465 176 465C66.0728 465 30.4999 465.5 3.00009 463C2.02764 445.5 3.00002 457.153 3.00002 434.5C3.00002 417.931 255.275 362.5 358 362.5C460.725 362.5 463.5 448.431 463.5 465Z" fill="black"/>
</g>
<defs>
<clipPath id="clip0_106_2">
<rect width="465" height="465" fill="white"/>
</clipPath>
</defs>
</svg>
